# xmcd
#
# Track frame offsets: 
#        150
#        11768
#        24883
#        35916
#        44886
#        56396
#        68053
#        78756
#        89631
#        101318
#        113248
#        123788
#        134186
#        147206
#        156798
#        168128
#        182511
#
# Disc length: 2584 seconds
#
# Revision: 2
# Processed by: cddbd v1.5.2PL0 Copyright (c) Steve Scherf et al.
# Submitted via: ExactAudioCopy v1.1
#
DISCID=e00a1611
DTITLE=Patsy Cline - The Very Best Of  Patsy Cline [CD2)
DYEAR=1999
DGENRE=Country
TTITLE0=Walkin' After Midnight
TTITLE1=If I Could See The World (Through The Eyes Of A Child)
TTITLE2=There He Goes
TTITLE3=Try Again
TTITLE4=The Heart You Break May Be Your Own
TTITLE5=In Care Of The Blues
TTITLE6=I Don't Wanna
TTITLE7=I Cried Al The Way To The Altar
TTITLE8=I've Loved And Lost Again
TTITLE9=If I Could Only Stay Asleep
TTITLE10=Lovesick Blues
TTITLE11=Pick Me Up On Your Way Down
TTITLE12=Life's Railway To Heaven
TTITLE13=I'm Moving Along
TTITLE14=That Wonderful Someone
TTITLE15=Then You'll Know
TTITLE16=Dear God
EXTD=
EXTT0=
EXTT1=
EXTT2=
EXTT3=
EXTT4=
EXTT5=
EXTT6=
EXTT7=
EXTT8=
EXTT9=
EXTT10=
EXTT11=
EXTT12=
EXTT13=
EXTT14=
EXTT15=
EXTT16=
PLAYORDER=
